# xmcd CD database file
#
# Track frame offsets:
#	150
#	21427
#	37320
#	53092
#	72690
#	84347
#	102105
#	115885
#	130872
#	148907
#	172632
#	190897
#
# Disc length: 2796 seconds
#
# Revision: 4
# Processed by: cddbd v1.5.2PL0 Copyright (c) Steve Scherf et al.
# Submitted via: CDex 1.51
#
DISCID=aa0aea0c
DTITLE=Enuff Z'nuff - 10
DYEAR=2000
DGENRE=Hard Rock
TTITLE0=Wake Up
TTITLE1=The Beast
TTITLE2=There Goes My Heart
TTITLE3=What Can I Do?
TTITLE4=Suicide
TTITLE5=Your Hearts No Good... ...But I Love Your Face
TTITLE6=All Right
TTITLE7=Holiday
TTITLE8=Bang On
TTITLE9=Fly Away
TTITLE10=No Place To Go
TTITLE11=The Jean Genie
EXTD=YEAR: 2000
EXTT0=
EXTT1=
EXTT2=
EXTT3=
EXTT4=
EXTT5=
EXTT6=
EXTT7=
EXTT8=
EXTT9=
EXTT10=
EXTT11=
PLAYORDER=
